<svg width="130" height="34" viewBox="0 0 87 23" fill="none" xmlns="http://www.w3.org/2000/svg"><path d="M12.7926 8.64205L9.49432 8.84659C9.47727 8.55682 9.39773 8.2983 9.25568 8.07102C9.11932 7.83807 8.91761 7.65341 8.65057 7.51705C8.3892 7.38068 8.05966 7.3125 7.66193 7.3125C7.06534 7.3125 6.53409 7.44886 6.06818 7.72159C5.60227 7.99432 5.33807 8.34375 5.27557 8.76989C5.22443 9.04261 5.29545 9.27273 5.48864 9.46023C5.68182 9.64773 6.07102 9.80682 6.65625 9.9375L8.95739 10.4148C10.1847 10.6761 11.071 11.1108 11.6165 11.7188C12.1676 12.3267 12.3636 13.1222 12.2045 14.1051C12.0625 14.9403 11.696 15.6705 11.1051 16.2955C10.5142 16.9148 9.7642 17.3977 8.85511 17.7443C7.94602 18.0852 6.9375 18.2557 5.82955 18.2557C4.05114 18.2557 2.69886 17.892 1.77273 17.1648C0.846591 16.4375 0.400568 15.4517 0.434659 14.2074L3.98011 14.0199C4.00852 14.554 4.19602 14.9574 4.54261 15.2301C4.8892 15.4972 5.36364 15.6335 5.96591 15.6392C6.64205 15.6506 7.21591 15.5114 7.6875 15.2216C8.16477 14.9261 8.43466 14.5682 8.49716 14.1477C8.54261 13.8523 8.45739 13.6136 8.24148 13.4318C8.03125 13.25 7.64489 13.0994 7.08239 12.9801L4.90057 12.5284C3.66193 12.2727 2.77273 11.8153 2.23295 11.1562C1.69318 10.4972 1.50852 9.65909 1.67898 8.64205C1.81534 7.82955 2.15341 7.13352 2.69318 6.55398C3.23864 5.96875 3.94034 5.51989 4.7983 5.20739C5.66193 4.89489 6.63636 4.73864 7.72159 4.73864C9.42045 4.73864 10.6989 5.08807 11.5568 5.78693C12.4205 6.4858 12.8324 7.4375 12.7926 8.64205ZM12.3219 22.9091L15.3389 4.90909H18.9185L18.552 7.10795H18.7139C18.9299 6.75568 19.2168 6.39773 19.5747 6.03409C19.9384 5.66477 20.3901 5.35795 20.9299 5.11364C21.4696 4.86364 22.1032 4.73864 22.8304 4.73864C23.7907 4.73864 24.6287 4.98864 25.3446 5.48864C26.0605 5.98295 26.5776 6.73011 26.8958 7.73011C27.2196 8.72443 27.2566 9.97159 27.0066 11.4716C26.7679 12.9318 26.3276 14.1648 25.6855 15.1705C25.0492 16.1705 24.285 16.929 23.3929 17.446C22.5066 17.9574 21.5662 18.2131 20.5719 18.2131C19.8674 18.2131 19.2878 18.0966 18.8333 17.8636C18.3844 17.6307 18.035 17.3381 17.785 16.9858C17.535 16.6278 17.3588 16.267 17.2566 15.9034H17.1202L15.9611 22.9091H12.3219ZM17.802 11.4545C17.677 12.233 17.6713 12.9119 17.785 13.4915C17.9043 14.071 18.1429 14.5227 18.5009 14.8466C18.8588 15.1648 19.3304 15.3239 19.9157 15.3239C20.5066 15.3239 21.0321 15.1619 21.4924 14.8381C21.9526 14.5085 22.3361 14.054 22.6429 13.4744C22.9497 12.8892 23.1685 12.2159 23.2992 11.4545C23.4185 10.6989 23.4213 10.0341 23.3077 9.46023C23.1941 8.88636 22.9611 8.4375 22.6088 8.11364C22.2566 7.78977 21.7793 7.62784 21.177 7.62784C20.5918 7.62784 20.0662 7.78409 19.6003 8.09659C19.1401 8.40909 18.7566 8.85227 18.4497 9.42614C18.1429 10 17.927 10.6761 17.802 11.4545ZM36.9293 12.4261L38.1822 4.90909H41.8128L39.631 18H36.1452L36.5373 15.6222H36.4009C35.9975 16.3892 35.4094 17.0057 34.6367 17.4716C33.864 17.9375 32.9861 18.1705 32.0032 18.1705C31.1282 18.1705 30.3895 17.9716 29.7873 17.5739C29.1907 17.1761 28.7674 16.6108 28.5174 15.8778C28.2674 15.1449 28.2248 14.267 28.3895 13.2443L29.7873 4.90909H33.418L32.1395 12.5966C32.0202 13.3693 32.1282 13.9801 32.4634 14.429C32.7986 14.8778 33.31 15.1023 33.9975 15.1023C34.435 15.1023 34.8583 15.0028 35.2674 14.804C35.6822 14.5994 36.0401 14.2983 36.3412 13.9006C36.6424 13.5028 36.8384 13.0114 36.9293 12.4261ZM41.8151 18L43.997 4.90909H47.5168L47.1333 7.19318H47.2697C47.6447 6.38068 48.1475 5.76705 48.7782 5.35227C49.4146 4.93182 50.0992 4.72159 50.8322 4.72159C51.014 4.72159 51.2043 4.73295 51.4032 4.75568C51.6078 4.77273 51.7896 4.80114 51.9487 4.84091L51.4032 8.07102C51.2441 8.0142 51.0168 7.96875 50.7214 7.93466C50.4316 7.89489 50.1561 7.875 49.8947 7.875C49.3663 7.875 48.8748 7.99148 48.4203 8.22443C47.9657 8.4517 47.5822 8.76989 47.2697 9.17898C46.9629 9.58807 46.7612 10.0597 46.6646 10.5938L45.4458 18H41.8151ZM55.1129 18.2131C54.1129 18.2131 53.2521 17.9574 52.5305 17.446C51.8146 16.929 51.3032 16.1705 50.9964 15.1705C50.6953 14.1648 50.6669 12.9318 50.9112 11.4716C51.1612 9.97159 51.6101 8.72443 52.2578 7.73011C52.9055 6.73011 53.6726 5.98295 54.5589 5.48864C55.4453 4.98864 56.3686 4.73864 57.3288 4.73864C58.0561 4.73864 58.6441 4.86364 59.093 5.11364C59.5476 5.35795 59.897 5.66477 60.1413 6.03409C60.3856 6.39773 60.5561 6.75568 60.6527 7.10795H60.7635L61.8629 0.545454H65.4851L62.5873 18H59.0078L59.3572 15.9034H59.2038C58.9765 16.267 58.6754 16.6278 58.3004 16.9858C57.9311 17.3381 57.4822 17.6307 56.9538 17.8636C56.4311 18.0966 55.8174 18.2131 55.1129 18.2131ZM56.7152 15.3239C57.2947 15.3239 57.8174 15.1648 58.2834 14.8466C58.7493 14.5227 59.1413 14.071 59.4595 13.4915C59.7777 12.9119 59.9993 12.233 60.1243 11.4545C60.2549 10.6761 60.2578 10 60.1328 9.42614C60.0078 8.85227 59.7635 8.40909 59.3998 8.09659C59.0419 7.78409 58.5674 7.62784 57.9765 7.62784C57.3799 7.62784 56.8515 7.78977 56.3913 8.11364C55.9368 8.4375 55.5589 8.88636 55.2578 9.46023C54.9623 10.0341 54.7521 10.6989 54.6271 11.4545C54.5021 12.2159 54.4936 12.8892 54.6015 13.4744C54.7095 14.054 54.9396 14.5085 55.2919 14.8381C55.6441 15.1619 56.1186 15.3239 56.7152 15.3239ZM70.7757 18.2557C69.4405 18.2557 68.3354 17.9716 67.4604 17.4034C66.5854 16.8295 65.9689 16.0341 65.6109 15.017C65.2587 13.9943 65.1933 12.804 65.4149 11.446C65.6308 10.1051 66.0797 8.93182 66.7615 7.92614C67.4433 6.92045 68.3098 6.1392 69.3609 5.58239C70.4121 5.01989 71.5967 4.73864 72.9149 4.73864C74.2445 4.73864 75.3467 5.02557 76.2217 5.59943C77.0967 6.16761 77.7132 6.96307 78.0712 7.9858C78.4291 9.00852 78.4973 10.1989 78.2757 11.5568C78.0541 12.892 77.5996 14.0625 76.9121 15.0682C76.2246 16.0739 75.3581 16.858 74.3126 17.4205C73.2672 17.9773 72.0882 18.2557 70.7757 18.2557ZM71.1337 15.4432C71.7473 15.4432 72.2899 15.2699 72.7615 14.9233C73.2388 14.571 73.6337 14.0937 73.9462 13.4915C74.2643 12.8835 74.4859 12.196 74.6109 11.429C74.7359 10.6733 74.7445 10.0028 74.6365 9.41761C74.5286 8.8267 74.3013 8.3608 73.9547 8.01989C73.6138 7.67898 73.145 7.50852 72.5484 7.50852C71.9348 7.50852 71.3893 7.68466 70.9121 8.03693C70.4348 8.38352 70.0399 8.8608 69.7274 9.46875C69.4149 10.0767 69.1962 10.767 69.0712 11.5398C68.9518 12.2898 68.9433 12.9602 69.0456 13.5511C69.1479 14.1364 69.3723 14.5994 69.7189 14.9403C70.0655 15.2756 70.5371 15.4432 71.1337 15.4432Z" fill="#0F0F0F"/><path d="M86.0614 0.545454L83.7091 12.767H80.6068L82.2858 0.545454H86.0614ZM81.4676 18.2216C80.8938 18.2216 80.4222 18.0227 80.0529 17.625C79.6892 17.2273 79.5245 16.7443 79.5586 16.1761C79.5983 15.6136 79.8341 15.1392 80.2659 14.7528C80.7034 14.3608 81.2063 14.1648 81.7745 14.1648C82.3199 14.1648 82.7801 14.3608 83.1551 14.7528C83.5301 15.1449 83.6949 15.6193 83.6495 16.1761C83.6211 16.5511 83.4989 16.8949 83.283 17.2074C83.0728 17.5142 82.8057 17.7614 82.4818 17.9489C82.158 18.1307 81.8199 18.2216 81.4676 18.2216Z" fill="#E5733F"/></svg>